<?xml version="1.0" encoding="UTF-8"?>
<!DOCTYPE svg PUBLIC "-//W3C//DTD SVG 1.1//EN" "http://www.w3.org/Graphics/SVG/1.1/DTD/svg11.dtd">
<svg xmlns="http://www.w3.org/2000/svg" version="1.1" width="512px" height="512px" style="shape-rendering:geometricPrecision; text-rendering:geometricPrecision; image-rendering:optimizeQuality; fill-rule:evenodd; clip-rule:evenodd" xmlns:xlink="http://www.w3.org/1999/xlink">
<g><path style="opacity:0.998" fill="#e9c4c6" d="M 115.5,-0.5 C 149.167,-0.5 182.833,-0.5 216.5,-0.5C 198.958,8.77083 181.291,17.7708 163.5,26.5C 142.5,26.5 121.5,26.5 100.5,26.5C 99.0432,13.7344 104.043,4.73439 115.5,-0.5 Z"/></g>
<g><path style="opacity:1" fill="#e3bec4" d="M 216.5,-0.5 C 239.167,-0.5 261.833,-0.5 284.5,-0.5C 266.958,8.77083 249.291,17.7708 231.5,26.5C 208.833,26.5 186.167,26.5 163.5,26.5C 181.291,17.7708 198.958,8.77083 216.5,-0.5 Z"/></g>
<g><path style="opacity:1" fill="#deb8c2" d="M 284.5,-0.5 C 305.833,-0.5 327.167,-0.5 348.5,-0.5C 330.958,8.77083 313.291,17.7708 295.5,26.5C 283.833,26.5 272.167,26.5 260.5,26.5C 250.833,26.5 241.167,26.5 231.5,26.5C 249.291,17.7708 266.958,8.77083 284.5,-0.5 Z"/></g>
<g><path style="opacity:1" fill="#d8b1c0" d="M 348.5,-0.5 C 373.5,-0.5 398.5,-0.5 423.5,-0.5C 405.709,8.22917 388.042,17.2292 370.5,26.5C 345.5,26.5 320.5,26.5 295.5,26.5C 313.291,17.7708 330.958,8.77083 348.5,-0.5 Z"/></g>
<g><path style="opacity:0.996" fill="#d3abbe" d="M 423.5,-0.5 C 427.167,-0.5 430.833,-0.5 434.5,-0.5C 443.542,2.55839 448.542,8.89173 449.5,18.5C 433.711,25.8946 418.044,33.5613 402.5,41.5C 400.833,40.1667 399.167,38.8333 397.5,37.5C 396.272,36.6935 395.272,35.6935 394.5,34.5C 391.431,30.6142 387.431,28.1142 382.5,27C 378.514,26.5012 374.514,26.3345 370.5,26.5C 388.042,17.2292 405.709,8.22917 423.5,-0.5 Z"/></g>
<g><path style="opacity:0.991" fill="#fef9f6" d="M 100.5,26.5 C 121.5,26.5 142.5,26.5 163.5,26.5C 186.167,26.5 208.833,26.5 231.5,26.5C 241.167,26.5 250.833,26.5 260.5,26.5C 276.995,27.3315 293.662,27.8315 310.5,28C 295.5,43 280.5,58 265.5,73C 233.331,73.1676 201.331,73.6676 169.5,74.5C 163.242,78.0703 162.909,82.237 168.5,87C 195.831,87.5 223.165,87.6666 250.5,87.5C 243.167,95.5 235.5,103.167 227.5,110.5C 226.977,108.292 225.644,106.792 223.5,106C 219.167,105.333 214.833,105.333 210.5,106C 204.775,111.209 205.442,115.376 212.5,118.5C 214.292,119.309 216.292,119.809 218.5,120C 210.167,128.333 201.833,136.667 193.5,145C 185.989,145.171 178.655,145.671 171.5,146.5C 165.484,147.658 163.651,150.991 166,156.5C 167.129,158.141 168.629,159.141 170.5,159.5C 172.607,160.468 174.941,160.802 177.5,160.5C 172.167,166.167 166.833,171.833 161.5,177.5C 137.164,177.333 112.831,177.5 88.5,178C 83.0172,182.725 83.3505,186.892 89.5,190.5C 108.329,191.332 127.329,191.832 146.5,192C 137.631,200.702 128.964,209.535 120.5,218.5C 109.828,218.333 99.1615,218.5 88.5,219C 83.0271,223.764 83.3604,227.931 89.5,231.5C 94.6509,232.327 99.9842,232.827 105.5,233C 99.9637,238.369 94.6303,243.869 89.5,249.5C 87.5273,250.806 85.8606,252.473 84.5,254.5C 73.5349,264.965 62.7016,275.631 52,286.5C 51.5006,291.823 51.334,297.156 51.5,302.5C 51.1667,302.5 50.8333,302.5 50.5,302.5C 50.3333,216.499 50.5,130.499 51,44.5C 52.1545,36.6835 56.3211,31.1835 63.5,28C 75.7581,26.5606 88.0915,26.0606 100.5,26.5 Z"/></g>
<g><path style="opacity:1" fill="#fef4f0" d="M 260.5,26.5 C 272.167,26.5 283.833,26.5 295.5,26.5C 320.5,26.5 345.5,26.5 370.5,26.5C 374.514,26.3345 378.514,26.5012 382.5,27C 387.431,28.1142 391.431,30.6142 394.5,34.5C 357.418,73.083 319.751,111.25 281.5,149C 280.906,149.464 280.239,149.631 279.5,149.5C 278.942,148.21 277.942,147.377 276.5,147C 241.502,146.5 206.502,146.333 171.5,146.5C 178.655,145.671 185.989,145.171 193.5,145C 201.833,136.667 210.167,128.333 218.5,120C 216.292,119.809 214.292,119.309 212.5,118.5C 216.967,118.867 221.3,118.367 225.5,117C 227.016,115.103 227.683,112.936 227.5,110.5C 235.5,103.167 243.167,95.5 250.5,87.5C 259.173,87.6664 267.84,87.4998 276.5,87C 281.342,83.3058 281.675,79.3058 277.5,75C 241.502,74.5 205.502,74.3333 169.5,74.5C 201.331,73.6676 233.331,73.1676 265.5,73C 280.5,58 295.5,43 310.5,28C 293.662,27.8315 276.995,27.3315 260.5,26.5 Z"/></g>
<g><path style="opacity:0.999" fill="#cca3bc" d="M 449.5,18.5 C 449.5,41.8333 449.5,65.1667 449.5,88.5C 447.57,92.1002 444.903,95.1002 441.5,97.5C 438.016,96.3433 434.683,95.01 431.5,93.5C 432.5,93.5 433.5,93.5 434.5,93.5C 433.89,86.8503 433.39,80.1836 433,73.5C 427.382,67.3805 421.548,61.3805 415.5,55.5C 412.5,51.8333 409.167,48.5 405.5,45.5C 404.5,44.1667 403.5,42.8333 402.5,41.5C 418.044,33.5613 433.711,25.8946 449.5,18.5 Z"/></g>
<g><path style="opacity:1" fill="#826aa4" d="M 397.5,37.5 C 399.167,38.8333 400.833,40.1667 402.5,41.5C 403.5,42.8333 404.5,44.1667 405.5,45.5C 406.964,60.4357 407.631,75.4357 407.5,90.5C 404.721,90.2786 402.054,90.612 399.5,91.5C 399.667,74.83 399.5,58.1633 399,41.5C 398.209,40.255 397.709,38.9217 397.5,37.5 Z"/></g>
<g><path style="opacity:1" fill="#8f74a9" d="M 405.5,45.5 C 409.167,48.5 412.5,51.8333 415.5,55.5C 417.931,67.0064 418.931,78.673 418.5,90.5C 414.833,90.5 411.167,90.5 407.5,90.5C 407.631,75.4357 406.964,60.4357 405.5,45.5 Z"/></g>
<g><path style="opacity:0.999" fill="#acd369" d="M 494.5,69.5 C 445.5,117.833 396.833,166.5 348.5,215.5C 344.566,213.561 340.899,211.228 337.5,208.5C 383.632,161.868 429.965,115.368 476.5,69C 476.272,68.6012 475.938,68.4346 475.5,68.5C 481.927,65.961 488.26,66.2943 494.5,69.5 Z"/></g>
<g><path style="opacity:1" fill="#b08cb3" d="M 415.5,55.5 C 421.548,61.3805 427.382,67.3805 433,73.5C 433.39,80.1836 433.89,86.8503 434.5,93.5C 433.5,93.5 432.5,93.5 431.5,93.5C 427.037,92.9596 422.703,91.9596 418.5,90.5C 418.931,78.673 417.931,67.0064 415.5,55.5 Z"/></g>
<g><path style="opacity:0.998" fill="#a5cd5f" d="M 494.5,69.5 C 497.803,70.1514 500.47,71.818 502.5,74.5C 454.368,122.132 406.368,169.965 358.5,218C 359.056,218.383 359.389,218.883 359.5,219.5C 355.647,218.55 351.98,217.217 348.5,215.5C 396.833,166.5 445.5,117.833 494.5,69.5 Z"/></g>
<g><path style="opacity:1" fill="#ffcec0" d="M 88.5,74.5 C 100.505,74.3335 112.505,74.5001 124.5,75C 127.349,77.5594 128.183,80.7261 127,84.5C 126.097,85.7014 124.931,86.5348 123.5,87C 111.833,87.6667 100.167,87.6667 88.5,87C 83.2618,82.7412 83.2618,78.5746 88.5,74.5 Z"/></g>
<g><path style="opacity:1" fill="#ffcbbc" d="M 141.5,74.5 C 146.179,74.3342 150.845,74.5008 155.5,75C 159.756,79.3854 159.423,83.3854 154.5,87C 150.167,87.6667 145.833,87.6667 141.5,87C 136.262,82.7412 136.262,78.5746 141.5,74.5 Z"/></g>
<g><path style="opacity:1" fill="#ffc3b2" d="M 169.5,74.5 C 205.502,74.3333 241.502,74.5 277.5,75C 281.675,79.3058 281.342,83.3058 276.5,87C 267.84,87.4998 259.173,87.6664 250.5,87.5C 223.165,87.6666 195.831,87.5 168.5,87C 162.909,82.237 163.242,78.0703 169.5,74.5 Z"/></g>
<g><path style="opacity:0.997" fill="#9ec856" d="M 502.5,74.5 C 505.647,76.3129 507.647,78.9796 508.5,82.5C 462.833,128.5 417.167,174.5 371.5,220.5C 367.434,220.693 363.434,220.36 359.5,219.5C 359.389,218.883 359.056,218.383 358.5,218C 406.368,169.965 454.368,122.132 502.5,74.5 Z"/></g>
<g><path style="opacity:1" fill="#f5937e" d="M 407.5,90.5 C 411.167,90.5 414.833,90.5 418.5,90.5C 422.703,91.9596 427.037,92.9596 431.5,93.5C 434.683,95.01 438.016,96.3433 441.5,97.5C 433.5,106.167 425.167,114.5 416.5,122.5C 393.5,122.5 370.5,122.5 347.5,122.5C 360.449,105.017 377.783,94.684 399.5,91.5C 402.054,90.612 404.721,90.2786 407.5,90.5 Z"/></g>
<g><path style="opacity:0.999" fill="#94c048" d="M 508.5,82.5 C 509.687,84.0725 510.687,85.7392 511.5,87.5C 511.5,92.5 511.5,97.5 511.5,102.5C 510.046,105.408 508.546,108.408 507,111.5C 498.298,120.035 489.798,128.702 481.5,137.5C 462.217,155.115 443.551,173.449 425.5,192.5C 418.3,199.868 410.633,206.701 402.5,213C 392.877,218.489 382.543,220.989 371.5,220.5C 417.167,174.5 462.833,128.5 508.5,82.5 Z"/></g>
<g><path style="opacity:1" fill="#ffc6b6" d="M 88.5,105.5 C 124.502,105.333 160.502,105.5 196.5,106C 201.818,109.951 201.818,113.951 196.5,118C 160.5,118.667 124.5,118.667 88.5,118C 83.247,113.789 83.247,109.623 88.5,105.5 Z"/></g>
<g><path style="opacity:1" fill="#ffc1b0" d="M 227.5,110.5 C 227.683,112.936 227.016,115.103 225.5,117C 221.3,118.367 216.967,118.867 212.5,118.5C 205.442,115.376 204.775,111.209 210.5,106C 214.833,105.333 219.167,105.333 223.5,106C 225.644,106.792 226.977,108.292 227.5,110.5 Z"/></g>
<g><path style="opacity:1" fill="#cfef9c" d="M 340.5,133.5 C 344.5,137.833 348.5,142.167 352.5,146.5C 339.114,158.885 326.447,171.885 314.5,185.5C 306.419,178.92 299.586,171.254 294,162.5C 289.038,143.922 295.538,131.422 313.5,125C 323.813,123.716 332.813,126.549 340.5,133.5 Z"/></g>
<g><path style="opacity:1" fill="#ea856e" d="M 347.5,122.5 C 370.5,122.5 393.5,122.5 416.5,122.5C 402.702,136.799 388.702,150.965 374.5,165C 373.5,165.667 372.5,165.667 371.5,165C 369.63,162.96 367.63,161.127 365.5,159.5C 361.5,154.833 357.167,150.5 352.5,146.5C 348.5,142.167 344.5,137.833 340.5,133.5C 342.584,129.664 344.917,125.997 347.5,122.5 Z"/></g>
<g><path style="opacity:1" fill="#964932" d="M 481.5,137.5 C 482.404,138.209 482.737,139.209 482.5,140.5C 463.926,160.245 445.092,179.911 426,199.5C 412.471,213.363 398.638,226.863 384.5,240C 385.056,240.383 385.389,240.883 385.5,241.5C 382.843,241.065 380.509,240.065 378.5,238.5C 379.552,238.649 380.552,238.483 381.5,238C 396.755,223.248 411.421,208.081 425.5,192.5C 443.551,173.449 462.217,155.115 481.5,137.5 Z"/></g>
<g><path style="opacity:1" fill="#ffc7b7" d="M 88.5,146.5 C 100.171,146.333 111.838,146.5 123.5,147C 127.292,149.053 128.458,152.219 127,156.5C 126.167,157.333 125.333,158.167 124.5,159C 112.5,159.667 100.5,159.667 88.5,159C 83.247,154.789 83.247,150.623 88.5,146.5 Z"/></g>
<g><path style="opacity:1" fill="#ffc4b4" d="M 141.5,146.5 C 146.628,146.112 151.628,146.612 156.5,148C 159.55,152.415 158.883,156.082 154.5,159C 150.167,159.667 145.833,159.667 141.5,159C 136.232,154.837 136.232,150.671 141.5,146.5 Z"/></g>
<g><path style="opacity:1" fill="#ffbba7" d="M 171.5,146.5 C 206.502,146.333 241.502,146.5 276.5,147C 277.942,147.377 278.942,148.21 279.5,149.5C 281.319,153.581 280.319,156.748 276.5,159C 241.168,159.5 205.835,159.667 170.5,159.5C 168.629,159.141 167.129,158.141 166,156.5C 163.651,150.991 165.484,147.658 171.5,146.5 Z"/></g>
<g><path style="opacity:1" fill="#fef1ea" d="M 394.5,34.5 C 395.272,35.6935 396.272,36.6935 397.5,37.5C 397.709,38.9217 398.209,40.255 399,41.5C 399.5,58.1633 399.667,74.83 399.5,91.5C 377.783,94.684 360.449,105.017 347.5,122.5C 344.917,125.997 342.584,129.664 340.5,133.5C 332.813,126.549 323.813,123.716 313.5,125C 295.538,131.422 289.038,143.922 294,162.5C 299.586,171.254 306.419,178.92 314.5,185.5C 318.167,189.833 322.167,193.833 326.5,197.5C 329.5,200.833 332.5,204.167 335.5,207.5C 297.868,245.632 260.035,283.632 222,321.5C 221.536,322.094 221.369,322.761 221.5,323.5C 201.209,330.484 183.876,341.817 169.5,357.5C 164.822,362.179 160.489,367.179 156.5,372.5C 155.599,373.29 154.932,374.29 154.5,375.5C 152.336,377.822 150.669,380.489 149.5,383.5C 149.167,383.5 148.833,383.5 148.5,383.5C 143.985,373.677 138.318,364.677 131.5,356.5C 124.507,347.841 116.84,339.841 108.5,332.5C 131.833,309.833 154.833,286.833 177.5,263.5C 183.69,263.823 189.69,263.49 195.5,262.5C 200.315,260.524 201.481,257.191 199,252.5C 198.184,251.177 197.017,250.511 195.5,250.5C 194.791,249.596 193.791,249.263 192.5,249.5C 197.63,243.869 202.964,238.369 208.5,233C 195.327,232.831 182.327,232.331 169.5,231.5C 205.502,231.667 241.502,231.5 277.5,231C 281.986,226.098 281.319,222.098 275.5,219C 254.503,218.5 233.503,218.333 212.5,218.5C 231.298,199.201 250.298,180.035 269.5,161C 238.835,160.5 208.168,160.333 177.5,160.5C 174.941,160.802 172.607,160.468 170.5,159.5C 205.835,159.667 241.168,159.5 276.5,159C 280.319,156.748 281.319,153.581 279.5,149.5C 280.239,149.631 280.906,149.464 281.5,149C 319.751,111.25 357.418,73.083 394.5,34.5 Z"/></g>
<g><path style="opacity:1" fill="#c0e386" d="M 352.5,146.5 C 357.167,150.5 361.5,154.833 365.5,159.5C 351.885,171.447 338.885,184.114 326.5,197.5C 322.167,193.833 318.167,189.833 314.5,185.5C 326.447,171.885 339.114,158.885 352.5,146.5 Z"/></g>
<g><path style="opacity:1" fill="#fff4ef" d="M 177.5,160.5 C 208.168,160.333 238.835,160.5 269.5,161C 250.298,180.035 231.298,199.201 212.5,218.5C 197.83,218.333 183.163,218.5 168.5,219C 162.909,223.763 163.242,227.93 169.5,231.5C 182.327,232.331 195.327,232.831 208.5,233C 202.964,238.369 197.63,243.869 192.5,249.5C 158.167,249.5 123.833,249.5 89.5,249.5C 94.6303,243.869 99.9637,238.369 105.5,233C 99.9842,232.827 94.6509,232.327 89.5,231.5C 101.171,231.667 112.838,231.5 124.5,231C 127.349,228.441 128.183,225.274 127,221.5C 125.266,219.549 123.099,218.549 120.5,218.5C 128.964,209.535 137.631,200.702 146.5,192C 127.329,191.832 108.329,191.332 89.5,190.5C 125.168,190.667 160.835,190.5 196.5,190C 202.086,185.579 201.753,181.579 195.5,178C 184.172,177.5 172.838,177.333 161.5,177.5C 166.833,171.833 172.167,166.167 177.5,160.5 Z"/></g>
<g><path style="opacity:1" fill="#b6da77" d="M 475.5,68.5 C 475.938,68.4346 476.272,68.6012 476.5,69C 429.965,115.368 383.632,161.868 337.5,208.5C 336.833,208.167 336.167,207.833 335.5,207.5C 332.5,204.167 329.5,200.833 326.5,197.5C 338.885,184.114 351.885,171.447 365.5,159.5C 367.63,161.127 369.63,162.96 371.5,165C 372.5,165.667 373.5,165.667 374.5,165C 388.702,150.965 402.702,136.799 416.5,122.5C 425.167,114.5 433.5,106.167 441.5,97.5C 444.903,95.1002 447.57,92.1002 449.5,88.5C 456.035,81.7977 463.035,75.631 470.5,70C 472.025,68.9914 473.692,68.4914 475.5,68.5 Z"/></g>
<g><path style="opacity:1" fill="#ffc0ae" d="M 161.5,177.5 C 172.838,177.333 184.172,177.5 195.5,178C 201.753,181.579 202.086,185.579 196.5,190C 160.835,190.5 125.168,190.667 89.5,190.5C 83.3505,186.892 83.0172,182.725 88.5,178C 112.831,177.5 137.164,177.333 161.5,177.5 Z"/></g>
<g><path style="opacity:1" fill="#ffbba8" d="M 210.5,177.5 C 215.297,177.121 219.964,177.621 224.5,179C 228.393,182.588 228.393,186.254 224.5,190C 219.051,190.896 213.718,190.563 208.5,189C 205.494,184.528 206.161,180.695 210.5,177.5 Z"/></g>
<g><path style="opacity:0.98" fill="#c85e43" d="M 486.5,155.5 C 490.956,189.923 478.622,216.589 449.5,235.5C 440.689,240.104 431.356,243.104 421.5,244.5C 423.628,241.87 425.961,239.37 428.5,237C 427.833,236.667 427.167,236.333 426.5,236C 427.833,235.333 427.833,234.667 426.5,234C 429.167,231 431.833,228 434.5,225C 434.5,223.667 434.5,222.333 434.5,221C 439.119,214.932 443.619,208.765 448,202.5C 453.138,197.541 457.805,192.208 462,186.5C 461.921,188.846 461.088,191.013 459.5,193C 459.833,193.333 460.167,193.667 460.5,194C 458.787,195.378 457.453,197.045 456.5,199C 457.167,199.667 457.833,199.667 458.5,199C 462.723,193.776 466.556,188.276 470,182.5C 475.601,176.236 480.934,169.902 486,163.5C 486.497,160.854 486.664,158.187 486.5,155.5 Z"/></g>
<g><path style="opacity:1" fill="#ab5038" d="M 482.5,140.5 C 484.277,143.505 485.277,146.838 485.5,150.5C 457.265,181.895 428.932,213.062 400.5,244C 402.058,244.21 403.391,244.71 404.5,245.5C 402.833,245.5 401.167,245.5 399.5,245.5C 394.678,244.783 390.012,243.449 385.5,241.5C 385.389,240.883 385.056,240.383 384.5,240C 398.638,226.863 412.471,213.363 426,199.5C 445.092,179.911 463.926,160.245 482.5,140.5 Z"/></g>
<g><path style="opacity:1" fill="#8a432f" d="M 425.5,192.5 C 411.421,208.081 396.755,223.248 381.5,238C 380.552,238.483 379.552,238.649 378.5,238.5C 366.33,233.739 356.33,226.072 348.5,215.5C 351.98,217.217 355.647,218.55 359.5,219.5C 363.434,220.36 367.434,220.693 371.5,220.5C 382.543,220.989 392.877,218.489 402.5,213C 410.633,206.701 418.3,199.868 425.5,192.5 Z"/></g>
<g><path style="opacity:1" fill="#bd583d" d="M 485.5,150.5 C 486.451,151.919 486.784,153.585 486.5,155.5C 486.664,158.187 486.497,160.854 486,163.5C 480.934,169.902 475.601,176.236 470,182.5C 466.556,188.276 462.723,193.776 458.5,199C 457.833,199.667 457.167,199.667 456.5,199C 457.453,197.045 458.787,195.378 460.5,194C 460.167,193.667 459.833,193.333 459.5,193C 461.088,191.013 461.921,188.846 462,186.5C 457.805,192.208 453.138,197.541 448,202.5C 443.619,208.765 439.119,214.932 434.5,221C 434.5,222.333 434.5,223.667 434.5,225C 431.833,228 429.167,231 426.5,234C 427.833,234.667 427.833,235.333 426.5,236C 427.167,236.333 427.833,236.667 428.5,237C 425.961,239.37 423.628,241.87 421.5,244.5C 420.209,244.263 419.209,244.596 418.5,245.5C 417.5,245.5 416.5,245.5 415.5,245.5C 412.833,245.5 410.167,245.5 407.5,245.5C 406.5,245.5 405.5,245.5 404.5,245.5C 403.391,244.71 402.058,244.21 400.5,244C 428.932,213.062 457.265,181.895 485.5,150.5 Z"/></g>
<g><path style="opacity:1" fill="#ffc1af" d="M 120.5,218.5 C 123.099,218.549 125.266,219.549 127,221.5C 128.183,225.274 127.349,228.441 124.5,231C 112.838,231.5 101.171,231.667 89.5,231.5C 83.3604,227.931 83.0271,223.764 88.5,219C 99.1615,218.5 109.828,218.333 120.5,218.5 Z"/></g>
<g><path style="opacity:1" fill="#ffbeab" d="M 141.5,218.5 C 145.846,218.334 150.179,218.501 154.5,219C 159.423,222.615 159.756,226.615 155.5,231C 150.051,231.896 144.718,231.563 139.5,230C 136.494,225.528 137.161,221.695 141.5,218.5 Z"/></g>
<g><path style="opacity:1" fill="#ffb5a1" d="M 212.5,218.5 C 233.503,218.333 254.503,218.5 275.5,219C 281.319,222.098 281.986,226.098 277.5,231C 241.502,231.5 205.502,231.667 169.5,231.5C 163.242,227.93 162.909,223.763 168.5,219C 183.163,218.5 197.83,218.333 212.5,218.5 Z"/></g>
<g><path style="opacity:1" fill="#feece3" d="M 335.5,207.5 C 336.167,207.833 336.833,208.167 337.5,208.5C 340.899,211.228 344.566,213.561 348.5,215.5C 356.33,226.072 366.33,233.739 378.5,238.5C 380.509,240.065 382.843,241.065 385.5,241.5C 390.012,243.449 394.678,244.783 399.5,245.5C 399.5,251.833 399.5,258.167 399.5,264.5C 369.368,294.132 339.368,323.965 309.5,354C 308.906,354.464 308.239,354.631 307.5,354.5C 297.167,344.5 286.833,334.5 276.5,324.5C 274.134,320.806 270.801,318.306 266.5,317C 254.786,315.774 243.452,316.941 232.5,320.5C 232.167,320.5 231.833,320.5 231.5,320.5C 228.059,321.193 224.725,322.193 221.5,323.5C 221.369,322.761 221.536,322.094 222,321.5C 260.035,283.632 297.868,245.632 335.5,207.5 Z"/></g>
<g><path style="opacity:1" fill="#7859a0" d="M 399.5,245.5 C 401.167,245.5 402.833,245.5 404.5,245.5C 405.5,245.5 406.5,245.5 407.5,245.5C 408.209,246.404 409.209,246.737 410.5,246.5C 411.205,257.532 412.372,268.532 414,279.5C 414.013,296.999 414.847,314.332 416.5,331.5C 417.5,331.5 418.5,331.5 419.5,331.5C 419.428,337.545 419.928,343.545 421,349.5C 421.333,347.833 421.667,346.167 422,344.5C 422.739,347.546 423.572,350.546 424.5,353.5C 422.495,363.31 422.161,373.31 423.5,383.5C 422.732,382.737 422.232,381.737 422,380.5C 421.667,381.833 421.333,383.167 421,384.5C 419.667,379.833 418.333,375.167 417,370.5C 416.667,372.167 416.333,373.833 416,375.5C 407.562,339.335 402.562,302.668 401,265.5C 400.5,298.498 400.333,331.498 400.5,364.5C 400.831,386.673 400.497,408.673 399.5,430.5C 399.5,401.167 399.5,371.833 399.5,342.5C 399.5,316.5 399.5,290.5 399.5,264.5C 399.5,258.167 399.5,251.833 399.5,245.5 Z"/></g>
<g><path style="opacity:1" fill="#ffc2b1" d="M 89.5,249.5 C 123.833,249.5 158.167,249.5 192.5,249.5C 193.791,249.263 194.791,249.596 195.5,250.5C 173.164,250.333 150.831,250.5 128.5,251C 124.833,254.667 121.167,258.333 117.5,262C 143.498,262.5 169.498,262.667 195.5,262.5C 189.69,263.49 183.69,263.823 177.5,263.5C 148.165,263.667 118.831,263.5 89.5,263C 85.9114,261.326 84.2447,258.493 84.5,254.5C 85.8606,252.473 87.5273,250.806 89.5,249.5 Z"/></g>
<g><path style="opacity:1" fill="#ffb8a4" d="M 195.5,250.5 C 197.017,250.511 198.184,251.177 199,252.5C 201.481,257.191 200.315,260.524 195.5,262.5C 169.498,262.667 143.498,262.5 117.5,262C 121.167,258.333 124.833,254.667 128.5,251C 150.831,250.5 173.164,250.333 195.5,250.5 Z"/></g>
<g><path style="opacity:1" fill="#ffb6a2" d="M 211.5,249.5 C 215.967,249.133 220.3,249.633 224.5,251C 228.758,255.721 228.091,259.721 222.5,263C 218.044,263.867 213.711,263.534 209.5,262C 205.276,257.059 205.943,252.892 211.5,249.5 Z"/></g>
<g><path style="opacity:1" fill="#fef4ef" d="M 84.5,254.5 C 84.2447,258.493 85.9114,261.326 89.5,263C 118.831,263.5 148.165,263.667 177.5,263.5C 154.833,286.833 131.833,309.833 108.5,332.5C 91.3198,319.076 72.3198,309.076 51.5,302.5C 51.334,297.156 51.5006,291.823 52,286.5C 62.7016,275.631 73.5349,264.965 84.5,254.5 Z"/></g>
<g><path style="opacity:0.998" fill="#9f6fab" d="M 449.5,235.5 C 449.5,254.167 449.5,272.833 449.5,291.5C 446.281,293.027 443.115,294.693 440,296.5C 439.867,293.586 438.7,291.253 436.5,289.5C 435.682,286.893 435.182,284.226 435,281.5C 434.667,283.167 434.333,284.833 434,286.5C 431.07,275.979 428.403,264.646 426,252.5C 425.667,252.833 425.333,253.167 425,253.5C 424.503,250.854 424.336,248.187 424.5,245.5C 422.5,245.5 420.5,245.5 418.5,245.5C 419.209,244.596 420.209,244.263 421.5,244.5C 431.356,243.104 440.689,240.104 449.5,235.5 Z"/></g>
<g><path style="opacity:1" fill="#ffe9de" d="M 399.5,264.5 C 399.5,290.5 399.5,316.5 399.5,342.5C 382.368,359.132 365.368,375.965 348.5,393C 347.906,393.464 347.239,393.631 346.5,393.5C 341.5,388.833 336.5,384.167 331.5,379.5C 326.5,373.833 321.167,368.5 315.5,363.5C 312.833,360.5 310.167,357.5 307.5,354.5C 308.239,354.631 308.906,354.464 309.5,354C 339.368,323.965 369.368,294.132 399.5,264.5 Z"/></g>
<g><path style="opacity:1" fill="#9366a8" d="M 415.5,245.5 C 416.5,245.5 417.5,245.5 418.5,245.5C 420.5,245.5 422.5,245.5 424.5,245.5C 424.336,248.187 424.503,250.854 425,253.5C 425.333,253.167 425.667,252.833 426,252.5C 428.403,264.646 431.07,275.979 434,286.5C 434.333,284.833 434.667,283.167 435,281.5C 435.182,284.226 435.682,286.893 436.5,289.5C 438.7,291.253 439.867,293.586 440,296.5C 443.115,294.693 446.281,293.027 449.5,291.5C 449.5,299.833 449.5,308.167 449.5,316.5C 445.521,318.154 441.521,319.821 437.5,321.5C 436.21,319.343 435.376,317.01 435,314.5C 434.667,314.833 434.333,315.167 434,315.5C 433.667,314.167 433.333,312.833 433,311.5C 432.667,311.833 432.333,312.167 432,312.5C 431.667,309.833 431.333,307.167 431,304.5C 430.667,306.167 430.333,307.833 430,309.5C 428.415,299.161 425.915,289.161 422.5,279.5C 419.809,267.547 417.476,256.214 415.5,245.5 Z"/></g>
<g><path style="opacity:1" fill="#825ca4" d="M 407.5,245.5 C 410.167,245.5 412.833,245.5 415.5,245.5C 417.476,256.214 419.809,267.547 422.5,279.5C 422.431,287.202 422.931,294.869 424,302.5C 427.699,323.739 430.866,345.072 433.5,366.5C 432.4,364.723 431.566,362.723 431,360.5C 430.667,361.833 430.333,363.167 430,364.5C 428.498,359.94 426.664,356.273 424.5,353.5C 423.572,350.546 422.739,347.546 422,344.5C 421.667,346.167 421.333,347.833 421,349.5C 419.928,343.545 419.428,337.545 419.5,331.5C 418.5,331.5 417.5,331.5 416.5,331.5C 414.847,314.332 414.013,296.999 414,279.5C 412.372,268.532 411.205,257.532 410.5,246.5C 409.209,246.737 408.209,246.404 407.5,245.5 Z"/></g>
<g><path style="opacity:1" fill="#759c4a" d="M 50.5,302.5 C 50.8333,302.5 51.1667,302.5 51.5,302.5C 72.3198,309.076 91.3198,319.076 108.5,332.5C 116.84,339.841 124.507,347.841 131.5,356.5C 119.442,353.37 107.442,350.036 95.5,346.5C 95.5,346.167 95.5,345.833 95.5,345.5C 95.7899,341.064 95.2899,336.73 94,332.5C 88.5667,336.361 82.9001,339.027 77,340.5C 68.5846,337.772 60.0846,335.438 51.5,333.5C 51.5,332.5 51.5,331.5 51.5,330.5C 51.7974,321.781 51.2974,313.114 50,304.5C 42.1254,314.046 32.4588,320.046 21,322.5C 19.8989,324.394 18.5655,325.061 17,324.5C 12.7687,326.69 8.43533,328.69 4,330.5C 2.03742,328.984 0.537419,329.317 -0.5,331.5C -0.5,323.833 -0.5,316.167 -0.5,308.5C 1.73934,303.766 5.40601,300.599 10.5,299C 24.0842,297.78 37.4175,298.947 50.5,302.5 Z"/></g>
<g><path style="opacity:0.998" fill="#905fa6" d="M 422.5,279.5 C 425.915,289.161 428.415,299.161 430,309.5C 430.333,307.833 430.667,306.167 431,304.5C 431.333,307.167 431.667,309.833 432,312.5C 432.333,312.167 432.667,311.833 433,311.5C 433.333,312.833 433.667,314.167 434,315.5C 434.333,315.167 434.667,314.833 435,314.5C 435.376,317.01 436.21,319.343 437.5,321.5C 441.521,319.821 445.521,318.154 449.5,316.5C 449.5,333.167 449.5,349.833 449.5,366.5C 446.281,368.027 443.115,369.693 440,371.5C 439.131,366.492 438.464,366.825 438,372.5C 437,370.167 436,367.833 435,365.5C 434.366,371.134 433.866,371.468 433.5,366.5C 430.866,345.072 427.699,323.739 424,302.5C 422.931,294.869 422.431,287.202 422.5,279.5 Z"/></g>
<g><path style="opacity:1" fill="#749a4a" d="M 276.5,324.5 C 277.798,331.197 277.798,337.864 276.5,344.5C 274.54,343.862 272.707,343.862 271,344.5C 261.895,340.04 252.395,335.54 242.5,331C 238.963,327.631 235.629,324.131 232.5,320.5C 243.452,316.941 254.786,315.774 266.5,317C 270.801,318.306 274.134,320.806 276.5,324.5 Z"/></g>
<g><path style="opacity:1" fill="#779e4c" d="M 231.5,320.5 C 231.5,327.833 231.5,335.167 231.5,342.5C 231.5,344.167 231.5,345.833 231.5,347.5C 224.128,349.29 216.794,351.29 209.5,353.5C 207.143,352.905 204.977,351.905 203,350.5C 202.667,350.833 202.333,351.167 202,351.5C 199,349.833 196,348.167 193,346.5C 192.503,349.146 192.336,351.813 192.5,354.5C 191.549,355.919 191.216,357.585 191.5,359.5C 186.757,360.519 182.091,361.853 177.5,363.5C 175.122,361.122 172.455,359.122 169.5,357.5C 183.876,341.817 201.209,330.484 221.5,323.5C 224.725,322.193 228.059,321.193 231.5,320.5 Z"/></g>
<g><path style="opacity:1" fill="#567433" d="M 51.5,330.5 C 51.5,331.5 51.5,332.5 51.5,333.5C 51.5,339.167 51.5,344.833 51.5,350.5C 47.8333,350.5 44.1667,350.5 40.5,350.5C 28.1667,350.5 15.8333,350.5 3.5,350.5C 3.5,350.167 3.5,349.833 3.5,349.5C 3.56138,347.408 4.56138,345.908 6.5,345C 14.3777,342.142 21.8777,338.642 29,334.5C 29.3333,334.833 29.6667,335.167 30,335.5C 36.8312,330.894 43.3312,326.56 49.5,322.5C 50.1676,325.306 50.8343,327.972 51.5,330.5 Z"/></g>
<g><path style="opacity:0.993" fill="#618339" d="M 51.5,330.5 C 50.8343,327.972 50.1676,325.306 49.5,322.5C 43.3312,326.56 36.8312,330.894 30,335.5C 29.6667,335.167 29.3333,334.833 29,334.5C 21.8777,338.642 14.3777,342.142 6.5,345C 4.56138,345.908 3.56138,347.408 3.5,349.5C 1.91067,343.885 0.577338,338.219 -0.5,332.5C -0.5,332.167 -0.5,331.833 -0.5,331.5C 0.537419,329.317 2.03742,328.984 4,330.5C 8.43533,328.69 12.7687,326.69 17,324.5C 18.5655,325.061 19.8989,324.394 21,322.5C 32.4588,320.046 42.1254,314.046 50,304.5C 51.2974,313.114 51.7974,321.781 51.5,330.5 Z"/></g>
<g><path style="opacity:1" fill="#6a8f40" d="M 95.5,345.5 C 94.71,344.391 94.21,343.058 94,341.5C 91.342,343.44 88.6753,345.44 86,347.5C 85.6667,347.167 85.3333,346.833 85,346.5C 77.7551,350.124 70.4217,353.457 63,356.5C 61.3547,356.307 59.5213,356.14 57.5,356C 55.7663,353.943 53.7663,353.443 51.5,354.5C 47.7239,353.133 44.0572,351.8 40.5,350.5C 44.1667,350.5 47.8333,350.5 51.5,350.5C 51.5,344.833 51.5,339.167 51.5,333.5C 60.0846,335.438 68.5846,337.772 77,340.5C 82.9001,339.027 88.5667,336.361 94,332.5C 95.2899,336.73 95.7899,341.064 95.5,345.5 Z"/></g>
<g><path style="opacity:1" fill="#714e9d" d="M 423.5,383.5 C 424.11,384.391 424.443,385.391 424.5,386.5C 426.338,399.279 429.005,411.112 432.5,422C 430.954,423.44 430.121,425.273 430,427.5C 429,425.167 428,422.833 427,420.5C 425.956,421.623 425.29,422.956 425,424.5C 423.684,423.026 422.684,421.359 422,419.5C 421.667,420.833 421.333,422.167 421,423.5C 420.08,421.368 418.913,419.368 417.5,417.5C 416.548,419.045 416.215,420.712 416.5,422.5C 413.15,416.301 410.65,409.634 409,402.5C 406.361,391.594 404.361,380.594 403,369.5C 402.626,367.509 401.793,365.842 400.5,364.5C 400.333,331.498 400.5,298.498 401,265.5C 402.562,302.668 407.562,339.335 416,375.5C 416.333,373.833 416.667,372.167 417,370.5C 418.333,375.167 419.667,379.833 421,384.5C 421.333,383.167 421.667,381.833 422,380.5C 422.232,381.737 422.732,382.737 423.5,383.5 Z"/></g>
<g><path style="opacity:1" fill="#6b9142" d="M 231.5,347.5 C 231.5,352.5 231.5,357.5 231.5,362.5C 233.631,363.314 235.964,363.814 238.5,364C 235.851,364.452 233.351,365.286 231,366.5C 230.439,365.978 229.772,365.645 229,365.5C 227.374,366.289 225.874,367.289 224.5,368.5C 219.077,367.487 214.077,365.487 209.5,362.5C 208.914,362.709 208.414,363.043 208,363.5C 202.79,360.394 197.624,357.394 192.5,354.5C 192.336,351.813 192.503,349.146 193,346.5C 196,348.167 199,349.833 202,351.5C 202.333,351.167 202.667,350.833 203,350.5C 204.977,351.905 207.143,352.905 209.5,353.5C 216.794,351.29 224.128,349.29 231.5,347.5 Z"/></g>
<g><path style="opacity:1" fill="#fed0c1" d="M 276.5,324.5 C 286.833,334.5 297.167,344.5 307.5,354.5C 310.167,357.5 312.833,360.5 315.5,363.5C 279.751,400.75 243.418,437.583 206.5,474C 207.667,475.167 208.833,476.333 210,477.5C 214.62,476.619 219.287,477.619 224,480.5C 224.414,480.043 224.914,479.709 225.5,479.5C 228.276,479.946 230.776,480.946 233,482.5C 233.667,481.833 234.333,481.167 235,480.5C 237.266,481.956 239.766,482.79 242.5,483C 242.167,483.333 241.833,483.667 241.5,484C 246.06,483.643 250.56,484.476 255,486.5C 256.194,485.57 257.527,484.903 259,484.5C 262.923,486.15 267.089,486.983 271.5,487C 272.749,488.824 273.915,488.657 275,486.5C 276,487.5 277,488.5 278,489.5C 280.37,487.883 283.036,486.883 286,486.5C 287.261,486.759 288.261,487.426 289,488.5C 296.62,487.718 304.453,487.385 312.5,487.5C 312.5,489.833 312.5,492.167 312.5,494.5C 300.791,494.457 289.291,494.457 278,494.5C 277.311,493.643 276.478,492.977 275.5,492.5C 274.312,493.84 272.812,494.507 271,494.5C 267.129,493.096 263.129,492.096 259,491.5C 257.221,492.479 255.555,492.146 254,490.5C 252.17,490.333 250.17,490.666 248,491.5C 243.163,491.447 238.496,490.114 234,487.5C 232.234,488.502 230.567,488.168 229,486.5C 226.667,486.833 224.333,487.167 222,487.5C 219.391,486.872 216.725,485.872 214,484.5C 210.07,484.19 206.403,484.19 203,484.5C 202,483.5 201,482.5 200,481.5C 198.883,481.665 197.716,481.998 196.5,482.5C 194.27,480.294 191.936,478.794 189.5,478C 184.907,478.159 180.24,477.492 175.5,476C 183.702,467.965 191.702,459.798 199.5,451.5C 225.671,438.33 246.004,418.997 260.5,393.5C 264.565,387.365 267.565,380.699 269.5,373.5C 273.637,364.397 275.971,354.73 276.5,344.5C 277.798,337.864 277.798,331.197 276.5,324.5 Z"/></g>
<g><path style="opacity:1" fill="#526e31" d="M 231.5,342.5 C 243.42,350.294 256.087,356.794 269.5,362C 256.838,362.5 244.171,362.667 231.5,362.5C 231.5,357.5 231.5,352.5 231.5,347.5C 231.5,345.833 231.5,344.167 231.5,342.5 Z"/></g>
<g><path style="opacity:0.992" fill="#5e8136" d="M 95.5,345.5 C 95.5,345.833 95.5,346.167 95.5,346.5C 95.5,349.167 95.5,351.833 95.5,354.5C 92.2675,353.156 89.7675,354.156 88,357.5C 87.6667,357.167 87.3333,356.833 87,356.5C 80.6124,359.715 74.1124,362.715 67.5,365.5C 65.8839,364.885 64.5505,363.885 63.5,362.5C 59.4166,364.094 55.7499,366.927 52.5,371C 49.8807,371.151 47.5473,371.985 45.5,373.5C 32.6087,369.091 19.6087,365.091 6.5,361.5C 5.34428,357.877 4.34428,354.211 3.5,350.5C 15.8333,350.5 28.1667,350.5 40.5,350.5C 44.0572,351.8 47.7239,353.133 51.5,354.5C 53.7663,353.443 55.7663,353.943 57.5,356C 59.5213,356.14 61.3547,356.307 63,356.5C 70.4217,353.457 77.7551,350.124 85,346.5C 85.3333,346.833 85.6667,347.167 86,347.5C 88.6753,345.44 91.342,343.44 94,341.5C 94.21,343.058 94.71,344.391 95.5,345.5 Z"/></g>
<g><path style="opacity:0.999" fill="#8654a2" d="M 424.5,353.5 C 426.664,356.273 428.498,359.94 430,364.5C 430.333,363.167 430.667,361.833 431,360.5C 431.566,362.723 432.4,364.723 433.5,366.5C 433.866,371.468 434.366,371.134 435,365.5C 436,367.833 437,370.167 438,372.5C 438.464,366.825 439.131,366.492 440,371.5C 443.115,369.693 446.281,368.027 449.5,366.5C 449.5,374.5 449.5,382.5 449.5,390.5C 446.404,391.547 443.404,392.88 440.5,394.5C 439.749,393.624 439.249,392.624 439,391.5C 438.667,392.833 438.333,394.167 438,395.5C 437.517,394.552 437.351,393.552 437.5,392.5C 435.61,392.297 434.11,392.963 433,394.5C 432.489,392.122 431.822,389.788 431,387.5C 430.784,389.384 430.117,391.051 429,392.5C 428.489,390.122 427.822,387.788 427,385.5C 426.329,386.252 425.496,386.586 424.5,386.5C 424.443,385.391 424.11,384.391 423.5,383.5C 422.161,373.31 422.495,363.31 424.5,353.5 Z"/></g>
<g><path style="opacity:1" fill="#5f8238" d="M 231.5,320.5 C 231.833,320.5 232.167,320.5 232.5,320.5C 235.629,324.131 238.963,327.631 242.5,331C 252.395,335.54 261.895,340.04 271,344.5C 272.707,343.862 274.54,343.862 276.5,344.5C 275.971,354.73 273.637,364.397 269.5,373.5C 257.861,376.949 246.361,379.949 235,382.5C 230.058,379.735 225.225,376.735 220.5,373.5C 219.784,374.311 218.95,374.978 218,375.5C 214.453,375.431 211.12,374.098 208,371.5C 207.667,371.833 207.333,372.167 207,372.5C 203.227,368.586 198.727,365.586 193.5,363.5C 192.511,367.107 192.177,370.774 192.5,374.5C 192.666,383.839 192.5,393.173 192,402.5C 190.938,403.899 189.605,404.899 188,405.5C 183.368,402.533 179.035,399.199 175,395.5C 168.217,387.633 162.05,379.966 156.5,372.5C 160.489,367.179 164.822,362.179 169.5,357.5C 172.455,359.122 175.122,361.122 177.5,363.5C 182.091,361.853 186.757,360.519 191.5,359.5C 191.216,357.585 191.549,355.919 192.5,354.5C 197.624,357.394 202.79,360.394 208,363.5C 208.414,363.043 208.914,362.709 209.5,362.5C 214.077,365.487 219.077,367.487 224.5,368.5C 225.874,367.289 227.374,366.289 229,365.5C 229.772,365.645 230.439,365.978 231,366.5C 233.351,365.286 235.851,364.452 238.5,364C 235.964,363.814 233.631,363.314 231.5,362.5C 244.171,362.667 256.838,362.5 269.5,362C 256.087,356.794 243.42,350.294 231.5,342.5C 231.5,335.167 231.5,327.833 231.5,320.5 Z"/></g>
<g><path style="opacity:1" fill="#698e40" d="M 95.5,346.5 C 107.442,350.036 119.442,353.37 131.5,356.5C 138.318,364.677 143.985,373.677 148.5,383.5C 143.906,382.986 140.24,380.986 137.5,377.5C 136.5,378.167 135.5,378.833 134.5,379.5C 121.534,375.343 108.534,371.343 95.5,367.5C 95.5,363.167 95.5,358.833 95.5,354.5C 95.5,351.833 95.5,349.167 95.5,346.5 Z"/></g>
<g><path style="opacity:0.993" fill="#56762e" d="M 95.5,354.5 C 95.5,358.833 95.5,363.167 95.5,367.5C 94.6805,364.695 94.1805,361.695 94,358.5C 91.7204,360.037 89.2204,361.203 86.5,362C 87.8331,363.84 87.6665,364.34 86,363.5C 79.2701,365.658 72.4367,368.492 65.5,372C 63.5172,373.889 61.1838,375.222 58.5,376C 56.5428,377.991 54.5428,379.991 52.5,382C 46.2804,383.709 40.1137,385.542 34,387.5C 28.6128,387.126 23.1128,386.126 17.5,384.5C 13.0491,377.263 9.38243,369.596 6.5,361.5C 19.6087,365.091 32.6087,369.091 45.5,373.5C 47.5473,371.985 49.8807,371.151 52.5,371C 55.7499,366.927 59.4166,364.094 63.5,362.5C 64.5505,363.885 65.8839,364.885 67.5,365.5C 74.1124,362.715 80.6124,359.715 87,356.5C 87.3333,356.833 87.6667,357.167 88,357.5C 89.7675,354.156 92.2675,353.156 95.5,354.5 Z"/></g>
<g><path style="opacity:1" fill="#ffe5d9" d="M 399.5,342.5 C 399.5,371.833 399.5,401.167 399.5,430.5C 399.5,431.833 399.5,433.167 399.5,434.5C 374.729,459.772 349.729,484.938 324.5,510C 322.292,510.191 320.292,510.691 318.5,511.5C 316.833,511.5 315.167,511.5 313.5,511.5C 313.5,506.167 313.5,500.833 313.5,495.5C 336.965,472.535 360.299,449.368 383.5,426C 373.542,424.917 363.542,424.417 353.5,424.5C 345.326,424.5 337.326,424.834 329.5,425.5C 320.303,428.032 314.97,434.032 313.5,443.5C 312.505,455.322 312.172,467.322 312.5,479.5C 305.28,480.047 298.28,479.381 291.5,477.5C 290.558,477.608 289.725,477.941 289,478.5C 285.773,478.047 282.773,477.047 280,475.5C 278.413,476.727 277.079,476.394 276,474.5C 275.086,475.654 274.253,475.487 273.5,474C 298.667,448.833 323.833,423.667 349,398.5C 348.942,396.565 348.109,394.898 346.5,393.5C 347.239,393.631 347.906,393.464 348.5,393C 365.368,375.965 382.368,359.132 399.5,342.5 Z"/></g>
<g><path style="opacity:0.999" fill="#654698" d="M 400.5,364.5 C 401.793,365.842 402.626,367.509 403,369.5C 404.361,380.594 406.361,391.594 409,402.5C 410.65,409.634 413.15,416.301 416.5,422.5C 416.393,424.379 416.893,424.712 418,423.5C 418.333,426.5 418.667,429.5 419,432.5C 419.333,432.167 419.667,431.833 420,431.5C 420.5,441.828 420.666,452.161 420.5,462.5C 408.493,474.002 394.16,481.002 377.5,483.5C 389.836,469.523 397.169,453.19 399.5,434.5C 399.5,433.167 399.5,431.833 399.5,430.5C 400.497,408.673 400.831,386.673 400.5,364.5 Z"/></g>
<g><path style="opacity:1" fill="#ffd7c9" d="M 315.5,363.5 C 321.167,368.5 326.5,373.833 331.5,379.5C 300.752,411.749 269.419,443.583 237.5,475C 238.749,476.824 239.915,476.657 241,474.5C 245.829,476.939 250.996,478.105 256.5,478C 256.167,478.333 255.833,478.667 255.5,479C 257.433,479.251 259.266,479.751 261,480.5C 262.682,480.193 264.348,479.86 266,479.5C 268.193,480.677 270.359,481.677 272.5,482.5C 275.122,481.561 278.122,481.728 281.5,483C 280.112,483.889 280.278,484.389 282,484.5C 283.285,484.05 284.452,483.383 285.5,482.5C 287.378,483.642 289.212,484.642 291,485.5C 297.777,485.727 304.944,485.394 312.5,484.5C 312.5,485.5 312.5,486.5 312.5,487.5C 304.453,487.385 296.62,487.718 289,488.5C 288.261,487.426 287.261,486.759 286,486.5C 283.036,486.883 280.37,487.883 278,489.5C 277,488.5 276,487.5 275,486.5C 273.915,488.657 272.749,488.824 271.5,487C 267.089,486.983 262.923,486.15 259,484.5C 257.527,484.903 256.194,485.57 255,486.5C 250.56,484.476 246.06,483.643 241.5,484C 241.833,483.667 242.167,483.333 242.5,483C 239.766,482.79 237.266,481.956 235,480.5C 234.333,481.167 233.667,481.833 233,482.5C 230.776,480.946 228.276,479.946 225.5,479.5C 224.914,479.709 224.414,480.043 224,480.5C 219.287,477.619 214.62,476.619 210,477.5C 208.833,476.333 207.667,475.167 206.5,474C 243.418,437.583 279.751,400.75 315.5,363.5 Z"/></g>
<g><path style="opacity:0.994" fill="#4c6a27" d="M 95.5,367.5 C 95.5,372.167 95.5,376.833 95.5,381.5C 94.6773,378.023 94.1773,374.356 94,370.5C 88.3922,373.708 82.5589,376.541 76.5,379C 73.423,383.165 69.7563,385.832 65.5,387C 65.8333,387.333 66.1667,387.667 66.5,388C 63.53,389.153 60.8633,390.82 58.5,393C 70.673,394.479 83.0063,394.979 95.5,394.5C 96.1667,395.5 96.8333,396.5 97.5,397.5C 96.1751,398.953 95.3418,398.619 95,396.5C 93.4285,397.204 91.7618,398.537 90,400.5C 89.3333,397.833 88.6667,397.833 88,400.5C 87.6667,400.167 87.3333,399.833 87,399.5C 86.6848,400.908 87.0181,402.241 88,403.5C 89.3561,402.62 90.8561,402.286 92.5,402.5C 92.762,403.978 92.4287,405.311 91.5,406.5C 90.2268,406.254 89.0601,406.254 88,406.5C 85.9847,408.917 83.9847,410.584 82,411.5C 81.0255,409.122 80.3589,409.456 80,412.5C 79.6924,411.692 79.1924,411.025 78.5,410.5C 76.7143,412.021 74.881,412.354 73,411.5C 72.6667,412.167 72.3333,412.833 72,413.5C 69.8914,413.434 67.7247,413.101 65.5,412.5C 62.295,413.774 59.795,415.774 58,418.5C 56.1237,416.877 54.7904,417.21 54,419.5C 53.7167,416.258 52.8834,415.924 51.5,418.5C 47.9515,417.03 44.2849,416.03 40.5,415.5C 30.913,406.581 23.2464,396.248 17.5,384.5C 23.1128,386.126 28.6128,387.126 34,387.5C 40.1137,385.542 46.2804,383.709 52.5,382C 54.5428,379.991 56.5428,377.991 58.5,376C 61.1838,375.222 63.5172,373.889 65.5,372C 72.4367,368.492 79.2701,365.658 86,363.5C 87.6665,364.34 87.8331,363.84 86.5,362C 89.2204,361.203 91.7204,360.037 94,358.5C 94.1805,361.695 94.6805,364.695 95.5,367.5 Z"/></g>
<g><path style="opacity:1" fill="#577730" d="M 269.5,373.5 C 267.565,380.699 264.565,387.365 260.5,393.5C 260.565,393.062 260.399,392.728 260,392.5C 252.616,396.228 245.116,396.394 237.5,393C 235.285,391.956 232.952,391.29 230.5,391C 226.421,387.245 222.088,383.911 217.5,381C 214.83,380.457 212.33,380.957 210,382.5C 204.264,380.429 198.43,377.763 192.5,374.5C 192.177,370.774 192.511,367.107 193.5,363.5C 198.727,365.586 203.227,368.586 207,372.5C 207.333,372.167 207.667,371.833 208,371.5C 211.12,374.098 214.453,375.431 218,375.5C 218.95,374.978 219.784,374.311 220.5,373.5C 225.225,376.735 230.058,379.735 235,382.5C 246.361,379.949 257.861,376.949 269.5,373.5 Z"/></g>
<g><path style="opacity:1" fill="#476027" d="M 95.5,381.5 C 95.5,383.833 95.5,386.167 95.5,388.5C 95.5,390.5 95.5,392.5 95.5,394.5C 83.0063,394.979 70.673,394.479 58.5,393C 60.8633,390.82 63.53,389.153 66.5,388C 66.1667,387.667 65.8333,387.333 65.5,387C 69.7563,385.832 73.423,383.165 76.5,379C 82.5589,376.541 88.3922,373.708 94,370.5C 94.1773,374.356 94.6773,378.023 95.5,381.5 Z"/></g>
<g><path style="opacity:1" fill="#5f8136" d="M 95.5,367.5 C 108.534,371.343 121.534,375.343 134.5,379.5C 135.5,378.833 136.5,378.167 137.5,377.5C 140.24,380.986 143.906,382.986 148.5,383.5C 148.833,383.5 149.167,383.5 149.5,383.5C 149.878,385.921 150.545,388.254 151.5,390.5C 151.03,391.693 150.03,392.36 148.5,392.5C 144.521,392.302 141.021,390.969 138,388.5C 131.606,390.254 125.106,392.587 118.5,395.5C 110.958,392.699 103.292,390.365 95.5,388.5C 95.5,386.167 95.5,383.833 95.5,381.5C 95.5,376.833 95.5,372.167 95.5,367.5 Z"/></g>
<g><path style="opacity:1" fill="#ffddcf" d="M 331.5,379.5 C 336.5,384.167 341.5,388.833 346.5,393.5C 348.109,394.898 348.942,396.565 349,398.5C 323.833,423.667 298.667,448.833 273.5,474C 274.253,475.487 275.086,475.654 276,474.5C 277.079,476.394 278.413,476.727 280,475.5C 282.773,477.047 285.773,478.047 289,478.5C 289.725,477.941 290.558,477.608 291.5,477.5C 298.28,479.381 305.28,480.047 312.5,479.5C 313.449,484.74 313.782,490.073 313.5,495.5C 313.5,500.833 313.5,506.167 313.5,511.5C 313.167,511.5 312.833,511.5 312.5,511.5C 312.5,509.5 312.5,507.5 312.5,505.5C 312.5,503.833 312.5,502.167 312.5,500.5C 312.5,498.5 312.5,496.5 312.5,494.5C 312.5,492.167 312.5,489.833 312.5,487.5C 312.5,486.5 312.5,485.5 312.5,484.5C 304.944,485.394 297.777,485.727 291,485.5C 289.212,484.642 287.378,483.642 285.5,482.5C 284.452,483.383 283.285,484.05 282,484.5C 280.278,484.389 280.112,483.889 281.5,483C 278.122,481.728 275.122,481.561 272.5,482.5C 270.359,481.677 268.193,480.677 266,479.5C 264.348,479.86 262.682,480.193 261,480.5C 259.266,479.751 257.433,479.251 255.5,479C 255.833,478.667 256.167,478.333 256.5,478C 250.996,478.105 245.829,476.939 241,474.5C 239.915,476.657 238.749,476.824 237.5,475C 269.419,443.583 300.752,411.749 331.5,379.5 Z"/></g>
<g><path style="opacity:0.994" fill="#7f4ca0" d="M 449.5,390.5 C 451.525,419.466 441.859,443.466 420.5,462.5C 420.666,452.161 420.5,441.828 420,431.5C 419.667,431.833 419.333,432.167 419,432.5C 418.667,429.5 418.333,426.5 418,423.5C 416.893,424.712 416.393,424.379 416.5,422.5C 416.215,420.712 416.548,419.045 417.5,417.5C 418.913,419.368 420.08,421.368 421,423.5C 421.333,422.167 421.667,420.833 422,419.5C 422.684,421.359 423.684,423.026 425,424.5C 425.29,422.956 425.956,421.623 427,420.5C 428,422.833 429,425.167 430,427.5C 430.121,425.273 430.954,423.44 432.5,422C 429.005,411.112 426.338,399.279 424.5,386.5C 425.496,386.586 426.329,386.252 427,385.5C 427.822,387.788 428.489,390.122 429,392.5C 430.117,391.051 430.784,389.384 431,387.5C 431.822,389.788 432.489,392.122 433,394.5C 434.11,392.963 435.61,392.297 437.5,392.5C 437.351,393.552 437.517,394.552 438,395.5C 438.333,394.167 438.667,392.833 439,391.5C 439.249,392.624 439.749,393.624 440.5,394.5C 443.404,392.88 446.404,391.547 449.5,390.5 Z"/></g>
<g><path style="opacity:1" fill="#54742d" d="M 95.5,388.5 C 103.292,390.365 110.958,392.699 118.5,395.5C 125.106,392.587 131.606,390.254 138,388.5C 141.021,390.969 144.521,392.302 148.5,392.5C 150.03,392.36 151.03,391.693 151.5,390.5C 157.944,404.359 161.61,419.026 162.5,434.5C 162.5,436.167 162.5,437.833 162.5,439.5C 154.797,437.657 147.13,435.657 139.5,433.5C 139.832,424.475 139.498,415.475 138.5,406.5C 137.914,406.291 137.414,405.957 137,405.5C 132.355,408.239 127.522,410.573 122.5,412.5C 121.833,412.167 121.167,411.833 120.5,411.5C 118.827,413.086 116.827,413.753 114.5,413.5C 112.167,411.5 109.833,409.5 107.5,407.5C 104.5,403.833 101.167,400.5 97.5,397.5C 96.8333,396.5 96.1667,395.5 95.5,394.5C 95.5,392.5 95.5,390.5 95.5,388.5 Z"/></g>
<g><path style="opacity:0.987" fill="#435e1e" d="M 97.5,397.5 C 101.167,400.5 104.5,403.833 107.5,407.5C 106.839,408.718 106.172,410.051 105.5,411.5C 100.146,415.196 94.8123,418.863 89.5,422.5C 90.5821,422.749 91.9154,422.915 93.5,423C 94.1258,423.75 94.6258,424.584 95,425.5C 96,422.833 97,422.833 98,425.5C 98.3333,425.167 98.6667,424.833 99,424.5C 99.3742,425.416 99.8742,426.25 100.5,427C 95.6179,428.587 91.6179,430.753 88.5,433.5C 84.087,432.314 80.087,433.648 76.5,437.5C 74.9411,436.926 73.4411,436.26 72,435.5C 71.6667,435.833 71.3333,436.167 71,436.5C 69.146,434.149 67.646,434.483 66.5,437.5C 60.8838,433.885 55.5505,429.885 50.5,425.5C 48.66,423.832 46.66,422.332 44.5,421C 42.5359,419.549 41.2026,417.716 40.5,415.5C 44.2849,416.03 47.9515,417.03 51.5,418.5C 52.8834,415.924 53.7167,416.258 54,419.5C 54.7904,417.21 56.1237,416.877 58,418.5C 59.795,415.774 62.295,413.774 65.5,412.5C 67.7247,413.101 69.8914,413.434 72,413.5C 72.3333,412.833 72.6667,412.167 73,411.5C 74.881,412.354 76.7143,412.021 78.5,410.5C 79.1924,411.025 79.6924,411.692 80,412.5C 80.3589,409.456 81.0255,409.122 82,411.5C 83.9847,410.584 85.9847,408.917 88,406.5C 89.0601,406.254 90.2268,406.254 91.5,406.5C 92.4287,405.311 92.762,403.978 92.5,402.5C 90.8561,402.286 89.3561,402.62 88,403.5C 87.0181,402.241 86.6848,400.908 87,399.5C 87.3333,399.833 87.6667,400.167 88,400.5C 88.6667,397.833 89.3333,397.833 90,400.5C 91.7618,398.537 93.4285,397.204 95,396.5C 95.3418,398.619 96.1751,398.953 97.5,397.5 Z"/></g>
<g><path style="opacity:1" fill="#3d4e26" d="M 189.5,454.5 C 185.499,456.589 181.165,457.922 176.5,458.5C 174.02,452.937 171.687,447.271 169.5,441.5C 167.929,440.691 166.262,440.357 164.5,440.5C 164.737,439.209 164.404,438.209 163.5,437.5C 163.737,436.209 163.404,435.209 162.5,434.5C 161.61,419.026 157.944,404.359 151.5,390.5C 150.545,388.254 149.878,385.921 149.5,383.5C 150.117,383.389 150.617,383.056 151,382.5C 155.245,387.317 158.745,392.65 161.5,398.5C 161.896,404.981 164.896,410.815 170.5,416C 170.235,417.719 169.735,419.552 169,421.5C 169.561,422.022 170.228,422.355 171,422.5C 172.626,421.711 174.126,420.711 175.5,419.5C 176.748,420.04 177.915,420.707 179,421.5C 180.108,424.079 181.608,426.412 183.5,428.5C 184.256,430.451 184.589,432.284 184.5,434C 183.833,434.333 183.167,434.667 182.5,435C 182.708,438.023 184.041,440.856 186.5,443.5C 186.37,445.423 186.036,447.256 185.5,449C 186.615,451.131 187.948,452.965 189.5,454.5 Z"/></g>
<g><path style="opacity:1" fill="#476323" d="M 156.5,372.5 C 162.05,379.966 168.217,387.633 175,395.5C 179.035,399.199 183.368,402.533 188,405.5C 189.605,404.899 190.938,403.899 192,402.5C 192.5,393.173 192.666,383.839 192.5,374.5C 198.43,377.763 204.264,380.429 210,382.5C 212.33,380.957 214.83,380.457 217.5,381C 222.088,383.911 226.421,387.245 230.5,391C 232.952,391.29 235.285,391.956 237.5,393C 245.116,396.394 252.616,396.228 260,392.5C 260.399,392.728 260.565,393.062 260.5,393.5C 246.004,418.997 225.671,438.33 199.5,451.5C 198.833,451.5 198.167,451.5 197.5,451.5C 198.959,446.928 200.126,442.261 201,437.5C 201.333,439.167 201.667,440.833 202,442.5C 203.487,441.747 203.654,440.914 202.5,440C 203.5,439.667 204.5,439.333 205.5,439C 204.167,438.333 204.167,437.667 205.5,437C 202.056,433.902 198.389,431.069 194.5,428.5C 193.757,427.092 192.923,425.759 192,424.5C 191.667,425.167 191.333,425.833 191,426.5C 189.43,422.925 187.43,419.592 185,416.5C 184.333,415.167 183.667,415.167 183,416.5C 182.51,415.207 182.343,413.873 182.5,412.5C 181.07,412.579 179.736,412.246 178.5,411.5C 176.431,408.685 173.931,406.352 171,404.5C 170.474,402.45 169.641,400.617 168.5,399C 169.833,398.667 171.167,398.333 172.5,398C 167.327,393.817 163.493,388.651 161,382.5C 159.257,379.74 157.09,377.407 154.5,375.5C 154.932,374.29 155.599,373.29 156.5,372.5 Z"/></g>
<g><path style="opacity:1" fill="#fff2ec" d="M 329.5,425.5 C 337.326,424.834 345.326,424.5 353.5,424.5C 363.542,424.417 373.542,424.917 383.5,426C 360.299,449.368 336.965,472.535 313.5,495.5C 313.782,490.073 313.449,484.74 312.5,479.5C 312.172,467.322 312.505,455.322 313.5,443.5C 313.333,455.505 313.5,467.505 314,479.5C 331.833,461.667 349.667,443.833 367.5,426C 354.838,425.5 342.171,425.333 329.5,425.5 Z"/></g>
<g><path style="opacity:1" fill="#3f5621" d="M 154.5,375.5 C 157.09,377.407 159.257,379.74 161,382.5C 163.493,388.651 167.327,393.817 172.5,398C 171.167,398.333 169.833,398.667 168.5,399C 169.641,400.617 170.474,402.45 171,404.5C 173.931,406.352 176.431,408.685 178.5,411.5C 179.736,412.246 181.07,412.579 182.5,412.5C 182.343,413.873 182.51,415.207 183,416.5C 183.667,415.167 184.333,415.167 185,416.5C 187.43,419.592 189.43,422.925 191,426.5C 191.333,425.833 191.667,425.167 192,424.5C 192.923,425.759 193.757,427.092 194.5,428.5C 198.389,431.069 202.056,433.902 205.5,437C 204.167,437.667 204.167,438.333 205.5,439C 204.5,439.333 203.5,439.667 202.5,440C 203.654,440.914 203.487,441.747 202,442.5C 201.667,440.833 201.333,439.167 201,437.5C 200.126,442.261 198.959,446.928 197.5,451.5C 194.993,452.892 192.327,453.892 189.5,454.5C 187.948,452.965 186.615,451.131 185.5,449C 186.036,447.256 186.37,445.423 186.5,443.5C 184.041,440.856 182.708,438.023 182.5,435C 183.167,434.667 183.833,434.333 184.5,434C 184.589,432.284 184.256,430.451 183.5,428.5C 181.608,426.412 180.108,424.079 179,421.5C 177.915,420.707 176.748,420.04 175.5,419.5C 174.126,420.711 172.626,421.711 171,422.5C 170.228,422.355 169.561,422.022 169,421.5C 169.735,419.552 170.235,417.719 170.5,416C 164.896,410.815 161.896,404.981 161.5,398.5C 158.745,392.65 155.245,387.317 151,382.5C 150.617,383.056 150.117,383.389 149.5,383.5C 150.669,380.489 152.336,377.822 154.5,375.5 Z"/></g>
<g><path style="opacity:1" fill="#fff9f7" d="M 329.5,425.5 C 342.171,425.333 354.838,425.5 367.5,426C 349.667,443.833 331.833,461.667 314,479.5C 313.5,467.505 313.333,455.505 313.5,443.5C 314.97,434.032 320.303,428.032 329.5,425.5 Z"/></g>
<g><path style="opacity:0.969" fill="#feeee7" d="M 50.5,425.5 C 55.5505,429.885 60.8838,433.885 66.5,437.5C 68.3885,438.604 70.0552,439.937 71.5,441.5C 82.8333,453.167 94.1667,464.833 105.5,476.5C 103.708,477.309 101.708,477.809 99.5,478C 83.1026,478.79 66.7692,479.623 50.5,480.5C 50.5,462.167 50.5,443.833 50.5,425.5 Z"/></g>
<g><path style="opacity:1" fill="#3e551d" d="M 107.5,407.5 C 109.833,409.5 112.167,411.5 114.5,413.5C 114.5,413.833 114.5,414.167 114.5,414.5C 113.625,416.568 112.459,418.568 111,420.5C 110,420.5 109,420.5 108,420.5C 106.579,421.921 104.745,423.755 102.5,426C 105.211,428.137 107.211,430.803 108.5,434C 107.833,435.333 106.833,436.333 105.5,437C 107,437.833 108.167,439 109,440.5C 109.333,439.5 109.667,438.5 110,437.5C 110.757,441.401 111.424,444.734 112,447.5C 111.667,446.833 111.333,446.167 111,445.5C 109.899,447.394 108.566,448.061 107,447.5C 106.717,450.742 105.883,451.076 104.5,448.5C 103.158,449.902 102.324,449.569 102,447.5C 101,448.833 100,448.833 99,447.5C 97.7137,449.183 96.547,450.849 95.5,452.5C 87.2305,449.364 79.2305,445.698 71.5,441.5C 70.0552,439.937 68.3885,438.604 66.5,437.5C 67.646,434.483 69.146,434.149 71,436.5C 71.3333,436.167 71.6667,435.833 72,435.5C 73.4411,436.26 74.9411,436.926 76.5,437.5C 80.087,433.648 84.087,432.314 88.5,433.5C 91.6179,430.753 95.6179,428.587 100.5,427C 99.8742,426.25 99.3742,425.416 99,424.5C 98.6667,424.833 98.3333,425.167 98,425.5C 97,422.833 96,422.833 95,425.5C 94.6258,424.584 94.1258,423.75 93.5,423C 91.9154,422.915 90.5821,422.749 89.5,422.5C 94.8123,418.863 100.146,415.196 105.5,411.5C 106.172,410.051 106.839,408.718 107.5,407.5 Z"/></g>
<g><path style="opacity:1" fill="#476323" d="M 162.5,434.5 C 163.404,435.209 163.737,436.209 163.5,437.5C 164.564,444.943 162.897,451.609 158.5,457.5C 154.813,454.145 151.147,450.811 147.5,447.5C 139.833,439.5 132.167,431.5 124.5,423.5C 121.192,420.529 117.859,417.529 114.5,414.5C 114.5,414.167 114.5,413.833 114.5,413.5C 116.827,413.753 118.827,413.086 120.5,411.5C 121.167,411.833 121.833,412.167 122.5,412.5C 127.522,410.573 132.355,408.239 137,405.5C 137.414,405.957 137.914,406.291 138.5,406.5C 139.498,415.475 139.832,424.475 139.5,433.5C 147.13,435.657 154.797,437.657 162.5,439.5C 162.5,437.833 162.5,436.167 162.5,434.5 Z"/></g>
<g><path style="opacity:1" fill="#3d5122" d="M 114.5,414.5 C 117.859,417.529 121.192,420.529 124.5,423.5C 122.651,429.88 123.484,435.88 127,441.5C 127.94,447.751 129.107,453.917 130.5,460C 128.527,460.495 126.527,460.662 124.5,460.5C 114.303,459.43 104.636,456.763 95.5,452.5C 96.547,450.849 97.7137,449.183 99,447.5C 100,448.833 101,448.833 102,447.5C 102.324,449.569 103.158,449.902 104.5,448.5C 105.883,451.076 106.717,450.742 107,447.5C 108.566,448.061 109.899,447.394 111,445.5C 111.333,446.167 111.667,446.833 112,447.5C 111.424,444.734 110.757,441.401 110,437.5C 109.667,438.5 109.333,439.5 109,440.5C 108.167,439 107,437.833 105.5,437C 106.833,436.333 107.833,435.333 108.5,434C 107.211,430.803 105.211,428.137 102.5,426C 104.745,423.755 106.579,421.921 108,420.5C 109,420.5 110,420.5 111,420.5C 112.459,418.568 113.625,416.568 114.5,414.5 Z"/></g>
<g><path style="opacity:1" fill="#fedecf" d="M 399.5,434.5 C 397.169,453.19 389.836,469.523 377.5,483.5C 363.533,498.318 346.533,507.651 326.5,511.5C 323.833,511.5 321.167,511.5 318.5,511.5C 320.292,510.691 322.292,510.191 324.5,510C 349.729,484.938 374.729,459.772 399.5,434.5 Z"/></g>
<g><path style="opacity:1" fill="#3f4d2a" d="M 124.5,423.5 C 132.167,431.5 139.833,439.5 147.5,447.5C 146.903,447.735 146.57,448.235 146.5,449C 147.23,452.794 147.73,456.627 148,460.5C 149.302,461.085 150.469,461.751 151.5,462.5C 150.167,462.5 148.833,462.5 147.5,462.5C 140.471,462.623 133.471,462.29 126.5,461.5C 125.508,461.672 124.842,461.338 124.5,460.5C 126.527,460.662 128.527,460.495 130.5,460C 129.107,453.917 127.94,447.751 127,441.5C 123.484,435.88 122.651,429.88 124.5,423.5 Z"/></g>
<g><path style="opacity:1" fill="#404933" d="M 163.5,437.5 C 164.404,438.209 164.737,439.209 164.5,440.5C 166.262,440.357 167.929,440.691 169.5,441.5C 171.687,447.271 174.02,452.937 176.5,458.5C 168.501,461.121 160.168,462.454 151.5,462.5C 150.469,461.751 149.302,461.085 148,460.5C 147.73,456.627 147.23,452.794 146.5,449C 146.57,448.235 146.903,447.735 147.5,447.5C 151.147,450.811 154.813,454.145 158.5,457.5C 162.897,451.609 164.564,444.943 163.5,437.5 Z"/></g>
<g><path style="opacity:1" fill="#fecab9" d="M 197.5,451.5 C 198.167,451.5 198.833,451.5 199.5,451.5C 191.702,459.798 183.702,467.965 175.5,476C 180.24,477.492 184.907,478.159 189.5,478C 191.936,478.794 194.27,480.294 196.5,482.5C 197.716,481.998 198.883,481.665 200,481.5C 201,482.5 202,483.5 203,484.5C 206.403,484.19 210.07,484.19 214,484.5C 216.725,485.872 219.391,486.872 222,487.5C 224.333,487.167 226.667,486.833 229,486.5C 230.567,488.168 232.234,488.502 234,487.5C 238.496,490.114 243.163,491.447 248,491.5C 250.17,490.666 252.17,490.333 254,490.5C 255.555,492.146 257.221,492.479 259,491.5C 263.129,492.096 267.129,493.096 271,494.5C 272.812,494.507 274.312,493.84 275.5,492.5C 276.478,492.977 277.311,493.643 278,494.5C 289.291,494.457 300.791,494.457 312.5,494.5C 312.5,496.5 312.5,498.5 312.5,500.5C 296.701,500.356 281.201,500.356 266,500.5C 261.286,499.887 256.619,499.221 252,498.5C 250.883,498.665 249.716,498.998 248.5,499.5C 244.659,498.565 240.826,497.565 237,496.5C 235.221,497.479 233.555,497.146 232,495.5C 231.228,495.645 230.561,495.978 230,496.5C 227,495.833 224,495.167 221,494.5C 217.271,494.577 213.605,494.577 210,494.5C 209.667,493.833 209.333,493.167 209,492.5C 206.107,492.317 203.107,492.651 200,493.5C 196.512,492.867 192.845,491.867 189,490.5C 185.917,492.057 184.417,491.39 184.5,488.5C 178.822,489.191 173.322,488.191 168,485.5C 167.228,485.645 166.561,485.978 166,486.5C 163.566,484.977 160.899,483.977 158,483.5C 157.667,483.833 157.333,484.167 157,484.5C 153.888,481.037 150.221,479.704 146,480.5C 145,479.167 144,477.833 143,476.5C 141,475.167 139,475.167 137,476.5C 136.5,476 136,475.5 135.5,475C 139.704,470.964 143.704,466.798 147.5,462.5C 148.833,462.5 150.167,462.5 151.5,462.5C 160.168,462.454 168.501,461.121 176.5,458.5C 181.165,457.922 185.499,456.589 189.5,454.5C 192.327,453.892 194.993,452.892 197.5,451.5 Z"/></g>
<g><path style="opacity:1" fill="#fec4b1" d="M 126.5,461.5 C 133.471,462.29 140.471,462.623 147.5,462.5C 143.704,466.798 139.704,470.964 135.5,475C 136,475.5 136.5,476 137,476.5C 139,475.167 141,475.167 143,476.5C 144,477.833 145,479.167 146,480.5C 150.221,479.704 153.888,481.037 157,484.5C 157.333,484.167 157.667,483.833 158,483.5C 160.899,483.977 163.566,484.977 166,486.5C 166.561,485.978 167.228,485.645 168,485.5C 173.322,488.191 178.822,489.191 184.5,488.5C 184.417,491.39 185.917,492.057 189,490.5C 192.845,491.867 196.512,492.867 200,493.5C 203.107,492.651 206.107,492.317 209,492.5C 209.333,493.167 209.667,493.833 210,494.5C 213.605,494.577 217.271,494.577 221,494.5C 224,495.167 227,495.833 230,496.5C 230.561,495.978 231.228,495.645 232,495.5C 233.555,497.146 235.221,497.479 237,496.5C 240.826,497.565 244.659,498.565 248.5,499.5C 249.716,498.998 250.883,498.665 252,498.5C 256.619,499.221 261.286,499.887 266,500.5C 281.201,500.356 296.701,500.356 312.5,500.5C 312.5,502.167 312.5,503.833 312.5,505.5C 295.13,505.228 277.963,505.228 261,505.5C 258.333,504.833 255.667,504.167 253,503.5C 248.455,504.802 243.955,504.469 239.5,502.5C 234.741,502.405 229.908,502.405 225,502.5C 221.034,500.966 217.034,500.633 213,501.5C 211.237,501.025 209.57,500.358 208,499.5C 203.252,499.73 198.252,499.73 193,499.5C 191.739,499.241 190.739,498.574 190,497.5C 189.667,497.833 189.333,498.167 189,498.5C 188.333,497.167 187.333,496.167 186,495.5C 184.333,496.833 182.667,496.833 181,495.5C 180.333,496.167 179.667,496.833 179,497.5C 175.598,495.152 171.932,494.486 168,495.5C 166.667,492.833 165.333,492.833 164,495.5C 158.154,492.012 151.987,490.179 145.5,490C 144.874,489.25 144.374,488.416 144,487.5C 141.41,488.378 139.077,488.378 137,487.5C 134.796,485.983 132.462,484.65 130,483.5C 129.333,484.167 128.667,484.833 128,485.5C 127.333,484.167 126.667,482.833 126,481.5C 124.333,481.5 122.667,481.5 121,481.5C 118.924,478.412 116.091,476.579 112.5,476C 117.37,471.298 122.037,466.465 126.5,461.5 Z"/></g>
<g><path style="opacity:1" fill="#ffdfd3" d="M 105.5,476.5 C 109.833,480.167 113.833,484.167 117.5,488.5C 95.1192,489.537 72.7858,490.87 50.5,492.5C 50.5,488.5 50.5,484.5 50.5,480.5C 66.7692,479.623 83.1026,478.79 99.5,478C 101.708,477.809 103.708,477.309 105.5,476.5 Z"/></g>
<g><path style="opacity:0.999" fill="#ffd0c2" d="M 117.5,488.5 C 121.167,491.5 124.5,494.833 127.5,498.5C 105.025,500.144 82.3586,500.977 59.5,501C 58.1667,501.333 56.8333,501.667 55.5,502C 56.2524,502.671 56.5858,503.504 56.5,504.5C 53.4578,501.082 51.4578,497.082 50.5,492.5C 72.7858,490.87 95.1192,489.537 117.5,488.5 Z"/></g>
<g><path style="opacity:1" fill="#febba8" d="M 71.5,441.5 C 79.2305,445.698 87.2305,449.364 95.5,452.5C 104.636,456.763 114.303,459.43 124.5,460.5C 124.842,461.338 125.508,461.672 126.5,461.5C 122.037,466.465 117.37,471.298 112.5,476C 116.091,476.579 118.924,478.412 121,481.5C 122.667,481.5 124.333,481.5 126,481.5C 126.667,482.833 127.333,484.167 128,485.5C 128.667,484.833 129.333,484.167 130,483.5C 132.462,484.65 134.796,485.983 137,487.5C 139.077,488.378 141.41,488.378 144,487.5C 144.374,488.416 144.874,489.25 145.5,490C 151.987,490.179 158.154,492.012 164,495.5C 165.333,492.833 166.667,492.833 168,495.5C 171.932,494.486 175.598,495.152 179,497.5C 179.667,496.833 180.333,496.167 181,495.5C 182.667,496.833 184.333,496.833 186,495.5C 187.333,496.167 188.333,497.167 189,498.5C 189.333,498.167 189.667,497.833 190,497.5C 190.739,498.574 191.739,499.241 193,499.5C 198.252,499.73 203.252,499.73 208,499.5C 209.57,500.358 211.237,501.025 213,501.5C 217.034,500.633 221.034,500.966 225,502.5C 229.908,502.405 234.741,502.405 239.5,502.5C 243.955,504.469 248.455,504.802 253,503.5C 255.667,504.167 258.333,504.833 261,505.5C 277.963,505.228 295.13,505.228 312.5,505.5C 312.5,507.5 312.5,509.5 312.5,511.5C 230.167,511.5 147.833,511.5 65.5,511.5C 65.5,511.167 65.5,510.833 65.5,510.5C 65.3893,509.883 65.056,509.383 64.5,509C 88.1569,507.997 111.824,507.164 135.5,506.5C 133.146,503.479 130.479,500.812 127.5,498.5C 124.5,494.833 121.167,491.5 117.5,488.5C 113.833,484.167 109.833,480.167 105.5,476.5C 94.1667,464.833 82.8333,453.167 71.5,441.5 Z"/></g>
<g><path style="opacity:1" fill="#ffc5b4" d="M 127.5,498.5 C 130.479,500.812 133.146,503.479 135.5,506.5C 111.824,507.164 88.1569,507.997 64.5,509C 65.056,509.383 65.3893,509.883 65.5,510.5C 61.6304,509.737 58.6304,507.737 56.5,504.5C 56.5858,503.504 56.2524,502.671 55.5,502C 56.8333,501.667 58.1667,501.333 59.5,501C 82.3586,500.977 105.025,500.144 127.5,498.5 Z"/></g>
</svg>
